<svg xmlns="http://www.w3.org/2000/svg" width="25.309" height="16.105" viewBox="0 0 25.309 16.105"><path d="M26.414,71.768v2.761h4.567A4.349,4.349,0,0,1,26.414,78a5.085,5.085,0,0,1,0-10.169,4.532,4.532,0,0,1,3.21,1.242l2.186-2.105a7.719,7.719,0,0,0-5.4-2.105,8.053,8.053,0,1,0,0,16.105c4.648,0,7.731-3.267,7.731-7.868a7.4,7.4,0,0,0-.127-1.334Z" transform="translate(-18.361 -64.866)" fill="#111c30" fill-rule="evenodd"/><path d="M207.284,112.672h-2.3v-2.3h-2.3v2.3h-2.3v2.3h2.3v2.3h2.3v-2.3h2.3Z" transform="translate(-181.975 -105.77)" fill="#111c30" fill-rule="evenodd"/></svg>