<svg xmlns="http://www.w3.org/2000/svg" width="171.885" height="15.035" viewBox="0 0 171.885 15.035"><path d="M98.71,8.468v6.779c0,.577.323.878.951.878h.75V7.59h-.75C99.037,7.59,98.71,7.891,98.71,8.468Z" transform="translate(-55.666 -4.275)"/><path d="M109.551,9.438V.58h-.75c-.624,0-.951.3-.951.878V9.417a3.121,3.121,0,0,0,.449,1.73,2.512,2.512,0,0,0,1.077.952,1.146,1.146,0,0,0,.85.1.643.643,0,0,0,.528-.7v-.778a1.248,1.248,0,0,1-.8-.275A1.261,1.261,0,0,1,109.551,9.438Z" transform="translate(-60.82 -0.327)"/><path d="M123.958,7.955a4.379,4.379,0,0,0-2.808-1,4.277,4.277,0,0,0-2.808,1,3.263,3.263,0,0,0-1.252,2.56V12.5a3.108,3.108,0,0,0,1.252,2.533,4.113,4.113,0,0,0,2.808,1,3.648,3.648,0,0,0,2.608-.952,1.014,1.014,0,0,0,.951.7h.5V10.514A3.15,3.15,0,0,0,123.958,7.955Zm-.449,4.543a1.538,1.538,0,0,1-.628,1.254,2.836,2.836,0,0,1-1.753.577,2.73,2.73,0,0,1-1.753-.577,1.7,1.7,0,0,1-.628-1.254V10.514a1.538,1.538,0,0,1,.628-1.254,2.7,2.7,0,0,1,1.753-.6,2.655,2.655,0,0,1,1.753.6,1.7,1.7,0,0,1,.628,1.254Z" transform="translate(-66.031 -3.914)"/><path d="M150.612,8.468l-.022,4.447a1.969,1.969,0,0,1-.427,1.407,1.727,1.727,0,0,1-1.278.428,1.686,1.686,0,0,1-1.23-.45,2.042,2.042,0,0,1-.475-1.38V7.647h-.759c-.624,0-.951.3-.951.878v4.368a1.846,1.846,0,0,1-.475,1.38,1.612,1.612,0,0,1-1.23.45,1.745,1.745,0,0,1-1.278-.428,2.03,2.03,0,0,1-.427-1.407V7.616h-.75c-.624,0-.951.3-.951.878v4.368a3.546,3.546,0,0,0,.9,2.56,3.316,3.316,0,0,0,2.507.952,3.272,3.272,0,0,0,2.555-1.105,3.2,3.2,0,0,0,2.555,1.105,3.373,3.373,0,0,0,2.507-.952,3.463,3.463,0,0,0,.9-2.56V7.59h-.75A.81.81,0,0,0,150.612,8.468Z" transform="translate(-79.153 -4.275)"/><path d="M176.7,8.226l-2.281,6.425h-.026L171.884,7.6h-1.051a.475.475,0,0,0-.475.227.65.65,0,0,0,0,.529l2.507,7.028a1.324,1.324,0,0,0,1.029.83l-.327.852a.661.661,0,0,1-.427.428,1.522,1.522,0,0,1-.576.127V18.4a.645.645,0,0,0,.5.7,1.371,1.371,0,0,0,.876-.1,2.614,2.614,0,0,0,.951-.852,2.7,2.7,0,0,0,.275-.55c.074-.2.174-.4.249-.629l3.305-9.387-1.147.017A.856.856,0,0,0,176.7,8.226Z" transform="translate(-96.039 -4.269)"/><path d="M197.716,13.645c-.1.074-.153.153-.227.2a2.119,2.119,0,0,1-.8.349,3.509,3.509,0,0,1-1.23.074,2.215,2.215,0,0,1-1.151-.328,1.053,1.053,0,0,1-.6-.952v-.7a.537.537,0,0,0,.275.127,1.111,1.111,0,0,0,.327.026h2.054a3.788,3.788,0,0,0,1.1-.149,2.756,2.756,0,0,0,1.029-.476,2.463,2.463,0,0,0,.728-.8,2.357,2.357,0,0,0,.275-1.254,2.466,2.466,0,0,0-.475-1.481,3.3,3.3,0,0,0-1.051-.878,5.078,5.078,0,0,0-2.254-.459,4.591,4.591,0,0,0-1.98.428,2.938,2.938,0,0,0-1.43,1.38A3.152,3.152,0,0,0,192.03,10v2.761a3.444,3.444,0,0,0,.3,1.455,2.572,2.572,0,0,0,.951,1.131,3.655,3.655,0,0,0,1.23.529,6.156,6.156,0,0,0,1.3.127,4.986,4.986,0,0,0,1.653-.275,3.64,3.64,0,0,0,1.452-.878,3.406,3.406,0,0,0,.628-.952l-.829-.4A.75.75,0,0,0,197.716,13.645Zm-4.007-3.687a1.029,1.029,0,0,1,.375-.8,2.056,2.056,0,0,1,.85-.4,5.29,5.29,0,0,1,1.3-.1,2.457,2.457,0,0,1,1.252.428.831.831,0,0,1,.327.778.887.887,0,0,1-.475.7,1.464,1.464,0,0,1-.824.2h-2.808Z" transform="translate(-108.292 -3.909)"/><path d="M213.867,8.257a2.816,2.816,0,0,0-.977,2.311v4.665c0,.577.323.878.951.878h.75V10.563a1.241,1.241,0,0,1,.4-1,1.3,1.3,0,0,1,.8-.275h.227c.6,0,.876-.323.876-.952V7.58h-1.1A2.884,2.884,0,0,0,213.867,8.257Z" transform="translate(-120.055 -4.269)"/><path d="M233.517,7.08a3.235,3.235,0,0,0-2.254.778l-.327.328a3.691,3.691,0,0,0-.327-.328,3.39,3.39,0,0,0-2.228-.778,3.268,3.268,0,0,0-2.507.978,3.546,3.546,0,0,0-.9,2.56v4.368c0,.577.323.878.951.878h.75V10.592a2.1,2.1,0,0,1,.427-1.407,1.8,1.8,0,0,1,1.3-.428,1.62,1.62,0,0,1,1.252.476,1.92,1.92,0,0,1,.475,1.38v4.368c0,.577.323.878.951.878h.75V10.588a1.92,1.92,0,0,1,.475-1.38,1.614,1.614,0,0,1,1.252-.476,1.745,1.745,0,0,1,1.278.428,1.84,1.84,0,0,1,.392,1.485v4.368c0,.577.323.878.951.878h.75V10.618a3.589,3.589,0,0,0-.9-2.56A3.275,3.275,0,0,0,233.517,7.08Z" transform="translate(-126.868 -3.988)"/><path d="M263.358,7.955a4.327,4.327,0,0,0-2.808-1,4.277,4.277,0,0,0-2.808,1,3.263,3.263,0,0,0-1.252,2.56V12.5a3.108,3.108,0,0,0,1.252,2.533,4.112,4.112,0,0,0,2.808,1,3.69,3.69,0,0,0,2.608-.952,1.014,1.014,0,0,0,.951.7h.5V10.514A3.15,3.15,0,0,0,263.358,7.955Zm-.423,4.543a1.538,1.538,0,0,1-.628,1.254,2.782,2.782,0,0,1-1.753.577,2.73,2.73,0,0,1-1.753-.577,1.7,1.7,0,0,1-.628-1.254V10.514a1.538,1.538,0,0,1,.628-1.254,2.85,2.85,0,0,1,3.506,0,1.7,1.7,0,0,1,.628,1.254Z" transform="translate(-144.643 -3.914)"/><path d="M280.687,8.257a2.816,2.816,0,0,0-.977,2.311v4.665c0,.577.323.878.951.878h.75V10.563a1.241,1.241,0,0,1,.4-1,1.3,1.3,0,0,1,.8-.275h.227c.6,0,.876-.323.876-.952V7.58h-1.1A2.884,2.884,0,0,0,280.687,8.257Z" transform="translate(-157.737 -4.269)"/><path d="M297.028,7.475c.1-.127.2-.3.327-.476l2.028-3.311h-1.33a1.166,1.166,0,0,0-1.029.6l-1.6,2.612c-.2.354-.523.328-.85.328h-.628V.63h-.75c-.624,0-.951.3-.951.878h0v9.828c0,.577.323.878.951.878h.75V8.925h1.827a.947.947,0,0,1,.951.629l.929,2.11a.983.983,0,0,0,1,.529h1.1l-1.452-3.311A2.537,2.537,0,0,0,297.028,7.475Z" transform="translate(-164.803 -0.355)"/><path d="M317.576,13.645c-.1.074-.153.153-.227.2a2.119,2.119,0,0,1-.8.349,3.509,3.509,0,0,1-1.23.074,2.215,2.215,0,0,1-1.151-.328,1.053,1.053,0,0,1-.6-.952v-.7a.537.537,0,0,0,.275.127,1.111,1.111,0,0,0,.327.026h2.054a3.788,3.788,0,0,0,1.1-.149,2.756,2.756,0,0,0,1.029-.476,2.463,2.463,0,0,0,.728-.8,2.357,2.357,0,0,0,.275-1.254,2.466,2.466,0,0,0-.475-1.481,3.3,3.3,0,0,0-1.051-.878,5.078,5.078,0,0,0-2.255-.459,4.591,4.591,0,0,0-1.98.428,2.938,2.938,0,0,0-1.43,1.38A3.153,3.153,0,0,0,311.89,10v2.761a3.445,3.445,0,0,0,.3,1.455,2.573,2.573,0,0,0,.951,1.131,3.654,3.654,0,0,0,1.23.529,6.156,6.156,0,0,0,1.3.127,4.986,4.986,0,0,0,1.653-.275,3.64,3.64,0,0,0,1.452-.878,3.406,3.406,0,0,0,.628-.952l-.829-.4A.75.75,0,0,0,317.576,13.645Zm-4.007-3.687a1.029,1.029,0,0,1,.375-.8,2.056,2.056,0,0,1,.85-.4,5.29,5.29,0,0,1,1.3-.1,2.457,2.457,0,0,1,1.251.428.832.832,0,0,1,.327.778.887.887,0,0,1-.475.7,1.464,1.464,0,0,1-.824.2h-2.808Z" transform="translate(-175.885 -3.909)"/><path d="M334.675.58H333.9c-.628,0-.929.3-.929.878V9.412a3.353,3.353,0,0,0,.427,1.73,2.512,2.512,0,0,0,1.077.952,1.227,1.227,0,0,0,.876.1.645.645,0,0,0,.5-.7v-.778a1.229,1.229,0,0,1-.776-.275,1.242,1.242,0,0,1-.4-1V5.341h1.1c.576,0,.876-.323.876-.952V3.642h-1.98Z" transform="translate(-187.772 -0.327)"/><path d="M360.3,7.912a4.164,4.164,0,0,0-2.708-.952,4.063,4.063,0,0,0-2.682.952,2.94,2.94,0,0,0-1.169,2.433v4.517c0,.577.323.878.951.878h.75V10.345a1.482,1.482,0,0,1,.576-1.131,2.615,2.615,0,0,1,3.21,0,1.443,1.443,0,0,1,.576,1.131v4.517c0,.577.323.878.951.878h.75V10.345A3.113,3.113,0,0,0,360.3,7.912Z" transform="translate(-199.482 -3.92)"/><path d="M382.452,7.921A4.54,4.54,0,0,0,379.67,6.89a4.327,4.327,0,0,0-2.808,1,3.263,3.263,0,0,0-1.252,2.56v1.983a3.169,3.169,0,0,0,1.252,2.533,4.159,4.159,0,0,0,2.808,1,4.34,4.34,0,0,0,2.381-.677v.328a1.425,1.425,0,0,1-1.23,1.455,4.717,4.717,0,0,1-1.5.175,3.588,3.588,0,0,1-1.5-.275l-.148.677a.831.831,0,0,0,.026.7,1.159,1.159,0,0,0,.776.428,7.132,7.132,0,0,0,1.3.127,5.472,5.472,0,0,0,1.478-.2,3.365,3.365,0,0,0,2.128-1.655,2.828,2.828,0,0,0,.327-1.407V10.481A3.212,3.212,0,0,0,382.452,7.921ZM382,12.464a1.538,1.538,0,0,1-.628,1.254,2.836,2.836,0,0,1-1.753.577,2.73,2.73,0,0,1-1.753-.577,1.7,1.7,0,0,1-.628-1.254V10.481a1.538,1.538,0,0,1,.628-1.254,2.7,2.7,0,0,1,1.753-.6,2.607,2.607,0,0,1,1.753.6A1.7,1.7,0,0,1,382,10.481Z" transform="translate(-211.818 -3.88)"/><path d="M99.529,1.66a.837.837,0,0,0,.829-.83A.829.829,0,1,0,98.7.83.837.837,0,0,0,99.529,1.66Z" transform="translate(-55.66)"/><path d="M344.82,8.638v6.779c0,.577.323.878.951.878h.75V7.76h-.75C345.147,7.76,344.82,8.061,344.82,8.638Z" transform="translate(-194.455 -4.37)"/><path d="M345.579,1.828a.837.837,0,0,0,.829-.83.8.8,0,0,0-.829-.83.835.835,0,0,0-.829.83A.837.837,0,0,0,345.579,1.828Z" transform="translate(-194.415 -0.094)"/><path d="M4.352,11.048c-.283-.14-.672-.3-1.169-.48-.449-.162-.776-.288-.99-.384a1.433,1.433,0,0,1-.48-.319.626.626,0,0,1-.161-.441.689.689,0,0,1,.279-.577,1.243,1.243,0,0,1,.767-.21,1.477,1.477,0,0,1,.99.31.966.966,0,0,1,.362.751v.083a.112.112,0,0,0,.035.087.122.122,0,0,0,.087.035h1.2a.112.112,0,0,0,.087-.035.122.122,0,0,0,.035-.087V9.624a2.02,2.02,0,0,0-.349-1.179,2.31,2.31,0,0,0-.972-.791A3.393,3.393,0,0,0,2.656,7.37a3.329,3.329,0,0,0-1.33.253,2.094,2.094,0,0,0-.9.725A1.913,1.913,0,0,0,.1,9.449a1.732,1.732,0,0,0,.331,1.075,2.381,2.381,0,0,0,.815.686,8.646,8.646,0,0,0,1.186.494c.419.153.724.275.916.363a1.525,1.525,0,0,1,.454.306.594.594,0,0,1,.166.424.73.73,0,0,1-.27.581,1.243,1.243,0,0,1-.829.236,1.711,1.711,0,0,1-1.047-.288.86.86,0,0,1-.388-.708v-.157a.112.112,0,0,0-.035-.087.122.122,0,0,0-.087-.035H.122a.112.112,0,0,0-.087.035A.122.122,0,0,0,0,12.459v.232a2,2,0,0,0,.34,1.158,2.165,2.165,0,0,0,.968.764,3.555,3.555,0,0,0,1.465.262A3.082,3.082,0,0,0,4.731,14.3a1.871,1.871,0,0,0,.724-1.555,1.635,1.635,0,0,0-.34-1.075A2.328,2.328,0,0,0,4.352,11.048Z" transform="translate(0 -4.151)"/><path d="M17.907,7.58H16.682a.119.119,0,0,0-.122.122v7.089a.112.112,0,0,0,.035.087.1.1,0,0,0,.087.031h1.225a.112.112,0,0,0,.087-.035.122.122,0,0,0,.035-.087V7.7a.112.112,0,0,0-.035-.087A.122.122,0,0,0,17.907,7.58Z" transform="translate(-9.339 -4.269)"/><path d="M28.7,7.579H23.422A.119.119,0,0,0,23.3,7.7V8.732a.112.112,0,0,0,.035.087.122.122,0,0,0,.087.035h1.823a.046.046,0,0,1,.052.052v5.875a.112.112,0,0,0,.035.087.122.122,0,0,0,.087.035h1.225a.112.112,0,0,0,.087-.035.122.122,0,0,0,.035-.087V8.9a.046.046,0,0,1,.052-.052h1.875a.112.112,0,0,0,.087-.035.122.122,0,0,0,.035-.087V7.7a.112.112,0,0,0-.035-.087A.1.1,0,0,0,28.7,7.579Z" transform="translate(-13.14 -4.268)"/><path d="M44.278,7.58H39.442a.119.119,0,0,0-.122.122v7.076a.112.112,0,0,0,.035.087.122.122,0,0,0,.087.035h4.836a.112.112,0,0,0,.087-.035.122.122,0,0,0,.035-.087V13.761a.112.112,0,0,0-.035-.087.122.122,0,0,0-.087-.035H40.846a.046.046,0,0,1-.052-.052v-1.7a.046.046,0,0,1,.052-.052H43.1a.112.112,0,0,0,.087-.035.122.122,0,0,0,.035-.087V10.694a.112.112,0,0,0-.035-.087.122.122,0,0,0-.087-.035h-2.25a.046.046,0,0,1-.052-.052V8.895a.046.046,0,0,1,.052-.052h3.432a.112.112,0,0,0,.087-.035A.1.1,0,0,0,44.4,8.72V7.7a.119.119,0,0,0-.122-.122Z" transform="translate(-22.174 -4.269)"/><path d="M64.879,11.153c-.044-.022-.044-.044,0-.061a1.549,1.549,0,0,0,.89-1.5q0-2.011-2.481-2.014H60.662a.119.119,0,0,0-.122.122V14.8a.112.112,0,0,0,.035.087.122.122,0,0,0,.087.035h2.712a2.946,2.946,0,0,0,1.81-.52,1.815,1.815,0,0,0,.689-1.538A1.774,1.774,0,0,0,64.879,11.153ZM62.01,8.9a.052.052,0,0,1,.052-.057h1.225a1.132,1.132,0,0,1,.763.236.822.822,0,0,1,.27.646.772.772,0,0,1-.27.629,1.146,1.146,0,0,1-.763.232H62.062a.046.046,0,0,1-.052-.052Zm2.115,4.49a1.055,1.055,0,0,1-.754.245H62.062a.046.046,0,0,1-.052-.052V11.843a.046.046,0,0,1,.052-.052h1.3a1.084,1.084,0,0,1,.763.245.876.876,0,0,1,.27.677A.861.861,0,0,1,64.124,13.389Z" transform="translate(-34.14 -4.269)"/><path d="M80.593,7.58H79.254a.153.153,0,0,0-.148.1L77.8,10.463c-.017.044-.039.044-.061,0L76.429,7.676a.151.151,0,0,0-.148-.1H74.963c-.074,0-.113.026-.113.083a.172.172,0,0,0,.022.061l2.163,4.346a.2.2,0,0,1,.009.061v2.651a.112.112,0,0,0,.035.087.108.108,0,0,0,.092.031h1.212a.112.112,0,0,0,.087-.035.122.122,0,0,0,.035-.087V12.127a.121.121,0,0,1,.009-.061l2.176-4.342a.109.109,0,0,0,0-.109A.126.126,0,0,0,80.593,7.58Z" transform="translate(-42.21 -4.269)"/></svg>