<svg xmlns="http://www.w3.org/2000/svg" width="17.486" height="16.709" viewBox="0 0 17.486 16.709"><path d="M0,1.943A1.817,1.817,0,0,1,.591.551,2.167,2.167,0,0,1,2.127,0a2.1,2.1,0,0,1,1.5.54A1.9,1.9,0,0,1,4.22,1.994a1.777,1.777,0,0,1-.574,1.35A2.171,2.171,0,0,1,2.093,3.9H2.076a2.066,2.066,0,0,1-1.5-.557A1.871,1.871,0,0,1,0,1.943ZM.219,16.711V5.437H3.966V16.711Zm5.823,0H9.79v-6.3A2.43,2.43,0,0,1,9.925,9.5a2.448,2.448,0,0,1,.717-.97,1.834,1.834,0,0,1,1.207-.4q1.89,0,1.89,2.549v6.025h3.747V10.247A5.432,5.432,0,0,0,16.3,6.458a4.03,4.03,0,0,0-3.123-1.291A3.83,3.83,0,0,0,9.79,7.04v.034H9.773L9.79,7.04v-1.6H6.042q.034.54.034,3.359T6.042,16.711Z" transform="translate(0 -0.002)"/></svg>