<svg xmlns="http://www.w3.org/2000/svg" width="23.477" height="16.399" viewBox="0 0 23.477 16.399"><g transform="translate(0 0)"><path d="M107.593,87.653a2.941,2.941,0,0,0-2.069-2.069c-1.837-.483-9.186-.483-9.186-.483s-7.349,0-9.186.483a2.941,2.941,0,0,0-2.069,2.069,33.218,33.218,0,0,0,0,11.293,2.941,2.941,0,0,0,2.069,2.069c1.837.483,9.186.483,9.186.483s7.349,0,9.186-.483a2.941,2.941,0,0,0,2.069-2.069,33.218,33.218,0,0,0,0-11.293Z" transform="translate(-84.6 -85.1)" fill="#111c30"/><path d="M133.1,116.358l6.111-3.52L133.1,109.3Z" transform="translate(-123.721 -104.62)" fill="#fff"/></g></svg>