<svg xmlns="http://www.w3.org/2000/svg" width="169.789" height="29.898" viewBox="0 0 169.789 29.898"><path d="M200.711,487.639a18.373,18.373,0,0,0-2.471,2.094l-2.62-1.538c.78-.675,1.624-1.355,2.537-2.025q.923-.678,1.937-1.336Zm-1.4-6.361c-1.288.768-2.488,1.569-3.6,2.384-1.2.88-2.294,1.776-3.29,2.659l2.158,1.266a27.343,27.343,0,0,1,5.248-3.956ZM182.7,491.4l7.079-4.154a31.075,31.075,0,0,1,11.247-8.172l5.742-5.1a52.118,52.118,0,0,0-13.489,7.152A53.568,53.568,0,0,0,182.7,491.4Zm24.911-18.173h0A37.187,37.187,0,0,0,182.4,490.7l2.2-9.988-8.422-7.478,11.209-1.1,4.51-10.321L196.4,472.13Zm-7.07.558-4.988-.489-3.659-8.377-3.661,8.377-9.1.893,6.836,6.069-.922,4.2A33.109,33.109,0,0,1,200.539,473.787Zm-1.634,16.336,2.7,1.584L200.9,488.5C200.171,489.036,199.507,489.583,198.906,490.123Z" transform="translate(-176.173 -461.809)" fill="#34c9fc"/><path d="M200.711,487.639a18.373,18.373,0,0,0-2.471,2.094l-2.62-1.538c.78-.675,1.624-1.355,2.537-2.025q.923-.678,1.937-1.336Zm-1.4-6.361c-1.288.768-2.488,1.569-3.6,2.384-1.2.88-2.294,1.776-3.29,2.659l2.158,1.266a27.343,27.343,0,0,1,5.248-3.956ZM182.7,491.4l7.079-4.154a31.075,31.075,0,0,1,11.247-8.172l5.742-5.1a52.118,52.118,0,0,0-13.489,7.152A53.568,53.568,0,0,0,182.7,491.4Zm24.911-18.173h0A37.187,37.187,0,0,0,182.4,490.7l2.2-9.988-8.422-7.478,11.209-1.1,4.51-10.321L196.4,472.13Zm-7.07.558-4.988-.489-3.659-8.377-3.661,8.377-9.1.893,6.836,6.069-.922,4.2A33.109,33.109,0,0,1,200.539,473.787Zm-1.634,16.336,2.7,1.584L200.9,488.5C200.171,489.036,199.507,489.583,198.906,490.123Z" transform="translate(-141.221 -461.809)" fill="#34c9fc"/><path d="M200.711,487.639a18.373,18.373,0,0,0-2.471,2.094l-2.62-1.538c.78-.675,1.624-1.355,2.537-2.025q.923-.678,1.937-1.336Zm-1.4-6.361c-1.288.768-2.488,1.569-3.6,2.384-1.2.88-2.294,1.776-3.29,2.659l2.158,1.266a27.343,27.343,0,0,1,5.248-3.956ZM182.7,491.4l7.079-4.154a31.075,31.075,0,0,1,11.247-8.172l5.742-5.1a52.118,52.118,0,0,0-13.489,7.152A53.568,53.568,0,0,0,182.7,491.4Zm24.911-18.173h0A37.187,37.187,0,0,0,182.4,490.7l2.2-9.988-8.422-7.478,11.209-1.1,4.51-10.321L196.4,472.13Zm-7.07.558-4.988-.489-3.659-8.377-3.661,8.377-9.1.893,6.836,6.069-.922,4.2A33.109,33.109,0,0,1,200.539,473.787Zm-1.634,16.336,2.7,1.584L200.9,488.5C200.171,489.036,199.507,489.583,198.906,490.123Z" transform="translate(-106.997 -461.809)" fill="#34c9fc"/><path d="M200.711,487.639a18.373,18.373,0,0,0-2.471,2.094l-2.62-1.538c.78-.675,1.624-1.355,2.537-2.025q.923-.678,1.937-1.336Zm-1.4-6.361c-1.288.768-2.488,1.569-3.6,2.384-1.2.88-2.294,1.776-3.29,2.659l2.158,1.266a27.343,27.343,0,0,1,5.248-3.956ZM182.7,491.4l7.079-4.154a31.075,31.075,0,0,1,11.247-8.172l5.742-5.1a52.118,52.118,0,0,0-13.489,7.152A53.568,53.568,0,0,0,182.7,491.4Zm24.911-18.173h0A37.187,37.187,0,0,0,182.4,490.7l2.2-9.988-8.422-7.478,11.209-1.1,4.51-10.321L196.4,472.13Zm-7.07.558-4.988-.489-3.659-8.377-3.661,8.377-9.1.893,6.836,6.069-.922,4.2A33.109,33.109,0,0,1,200.539,473.787Zm-1.634,16.336,2.7,1.584L200.9,488.5C200.171,489.036,199.507,489.583,198.906,490.123Z" transform="translate(-37.82 -461.809)" fill="#34c9fc"/><path d="M200.711,487.639a18.373,18.373,0,0,0-2.471,2.094l-2.62-1.538c.78-.675,1.624-1.355,2.537-2.025q.923-.678,1.937-1.336Zm-1.4-6.361c-1.288.768-2.488,1.569-3.6,2.384-1.2.88-2.294,1.776-3.29,2.659l2.158,1.266a27.343,27.343,0,0,1,5.248-3.956ZM182.7,491.4l7.079-4.154a31.075,31.075,0,0,1,11.247-8.172l5.742-5.1a52.118,52.118,0,0,0-13.489,7.152A53.568,53.568,0,0,0,182.7,491.4Zm24.911-18.173h0A37.187,37.187,0,0,0,182.4,490.7l2.2-9.988-8.422-7.478,11.209-1.1,4.51-10.321L196.4,472.13Zm-7.07.558-4.988-.489-3.659-8.377-3.661,8.377-9.1.893,6.836,6.069-.922,4.2A33.109,33.109,0,0,1,200.539,473.787Zm-1.634,16.336,2.7,1.584L200.9,488.5C200.171,489.036,199.507,489.583,198.906,490.123Z" transform="translate(-72.045 -461.809)" fill="#34c9fc"/></svg>