<svg xmlns="http://www.w3.org/2000/svg" width="60.934" height="72" viewBox="0 0 60.934 72"><path d="M1554.484,1693.918a18.309,18.309,0,0,0-.5,3.736,11.459,11.459,0,0,0-9.454,11.268v17.322a1.818,1.818,0,1,1-3.635,0v-17.322q0-.6.047-1.2a15.065,15.065,0,0,1,13.546-13.808Z" transform="translate(-1540.892 -1664.975)" fill="#34c9fc"/><g transform="translate(0 42.75)"><path d="M1540.939,1999.4q-.047.594-.047,1.2v-.784A1.839,1.839,0,0,1,1540.939,1999.4Z" transform="translate(-1540.892 -1999.401)" fill="#34c9fc"/></g><path d="M1897.272,1439.223v18.669a6.88,6.88,0,0,1-13.76,0v-.02l.026-2.341v-8.249q0-.543.043-1.078a13.417,13.417,0,0,1,7.684-11.056,11.3,11.3,0,0,1,.725,3.731,9.749,9.749,0,0,0-4.816,8.4v8.258c0,.006,0,.013,0,.02l-.026,2.34a3.245,3.245,0,0,0,6.49-.009v-18.669a13.019,13.019,0,1,0-26.037,0v30.945a4.092,4.092,0,0,0,4.087,4.087,4.19,4.19,0,0,0,4.192-4.075v-20.343a11.455,11.455,0,0,0-6.514-10.325v-.378a11.279,11.279,0,0,1,.514-3.361q.216.083.429.173a15.063,15.063,0,0,1,9.2,13.291q.012.3.012.6v20.343a7.587,7.587,0,0,1-2.333,5.472,7.844,7.844,0,0,1-5.5,2.238,7.731,7.731,0,0,1-7.723-7.722v-30.945a16.654,16.654,0,1,1,33.308,0Z" transform="translate(-1849.361 -1405.891)" fill="#34c9fc"/><path d="M2632.862,1687.4a13.379,13.379,0,0,0-12.113-12.772,18.314,18.314,0,0,1,.691,3.772,9.759,9.759,0,0,1,7.8,9.548v19.878a1.818,1.818,0,1,0,3.636,0v-20.219A1.87,1.87,0,0,0,2632.862,1687.4Z" transform="translate(-2571.94 -1646.561)" fill="#34c9fc"/><g transform="translate(30.141 40.313)"><path d="M2297.067,1945.484q-.043.535-.042,1.078v-.684A1.855,1.855,0,0,1,2297.067,1945.484Z" transform="translate(-2292.989 -1945.484)" fill="#34c9fc"/><path d="M2207.757,2012.817v.392q0-.3-.012-.6A1.819,1.819,0,0,1,2207.757,2012.817Z" transform="translate(-2207.745 -2009.575)" fill="#34c9fc"/></g><g transform="translate(6.273 9.98)"><path d="M1686.483,1288a6.808,6.808,0,1,1,6.807-6.808A6.816,6.816,0,0,1,1686.483,1288Zm0-9.98a3.172,3.172,0,1,0,3.172,3.172A3.176,3.176,0,0,0,1686.483,1278.02Z" transform="translate(-1679.675 -1274.385)" fill="#34c9fc"/></g><g transform="translate(24.449)"><path d="M2088.614,1067.205a6.808,6.808,0,1,1,6.808-6.808A6.815,6.815,0,0,1,2088.614,1067.205Zm0-9.98a3.172,3.172,0,1,0,3.172,3.172A3.176,3.176,0,0,0,2088.614,1057.226Z" transform="translate(-2081.806 -1053.59)" fill="#34c9fc"/></g><g transform="translate(44.902 13.818)"><path d="M2540.156,1371a5.849,5.849,0,1,1,5.849-5.849A5.855,5.855,0,0,1,2540.156,1371Zm0-8.062a2.213,2.213,0,1,0,2.213,2.213A2.216,2.216,0,0,0,2540.156,1362.937Z" transform="translate(-2534.307 -1359.301)" fill="#34c9fc"/></g><path d="M2030.373,1644.684l-.172.053a.69.69,0,0,1,.072-.025Z" transform="translate(-2008.084 -1617.967)" fill="#34c9fc"/></svg>