<svg xmlns="http://www.w3.org/2000/svg" width="300.298" height="69.994" viewBox="0 0 300.298 69.994"><g transform="translate(0 0)"><g transform="translate(122.15 10.275)"><path d="M225.087,78.986l.638.038.158-.322-.089-.54-.221-.224h-.115a2.012,2.012,0,0,1-.917-.134,1.161,1.161,0,0,1-.4-.984c-.039-.616-.06-.956-.06-2.933v-3.77c0-1.94,0-2.344.061-3.1.036-.655.22-.82.381-.966a1.955,1.955,0,0,1,.935-.151h.115l.221-.224.089-.54-.158-.321-.694.04c-.589.037-1.477.091-1.751.091h-.388c-.275,0-1.166-.055-1.756-.091l-.689-.04-.158.321.092.558.257.207h.1a1.83,1.83,0,0,1,.9.135,1.3,1.3,0,0,1,.4.992c.06.622.06,1.2.06,3.108V74.3c0,1.583-.019,2.1-.04,2.518a1.214,1.214,0,0,1-.4.972,1.536,1.536,0,0,1-.8.148l-.189-.127-.123-.045c-2.517-.278-3.37-1.164-4.912-2.98-1.218-1.431-2.466-3.04-3.713-4.787,1.484-.429,4.71-1.8,4.71-5.58,0-1.961-.962-5.251-7.4-5.251-.264,0-.714.006-1.206.013-.59.008-1.242.017-1.7.017h-1.047c-.526,0-1.275-.064-1.877-.115-.317-.027-.6-.05-.785-.06l-.179-.009-.176.355.117.714.3.243h.1c.926,0,1.109.083,1.367.23a1.973,1.973,0,0,1,.6,1.477c.064,1.049.087,2.132.087,2.8V72.44c0,2.286-.027,3.015-.056,3.6a2.161,2.161,0,0,1-.609,1.5,2.717,2.717,0,0,1-1.389.218h-.1l-.3.243-.117.715.176.355.179-.009c.159-.008.451-.027.8-.048.821-.051,2.06-.127,2.446-.127h.552c.386,0,1.626.076,2.446.127.347.021.638.04.8.048l.179.009.176-.355-.116-.7-.257-.26h-.115c-.954,0-1.138-.083-1.4-.229a1.783,1.783,0,0,1-.6-1.481c-.057-.81-.084-3.748-.086-5.741h1.706c.544.794,3.626,5.289,3.916,5.58,1.861,2.284,2.773,3.294,4.9,3.294.285,0,.713-.025,1.175-.052.521-.031,1.111-.066,1.559-.066h.168l.034-.068.192-.011c.571-.036,1.528-.1,1.812-.1h.388C223.563,78.891,224.518,78.951,225.087,78.986ZM214.073,64.593c0,2.578-1.435,3.885-4.265,3.885h-1.542c-.831,0-.831,0-.831-.81V64.8c0-.848.029-1.656.131-3.653h2.272C212.489,61.144,214.073,62.433,214.073,64.593Z" transform="translate(-200.676 -59.011)" fill="#323233"/><path d="M236.544,78.629c-.074.721-.283.884-.4.973a1.609,1.609,0,0,1-.921.155h-.1l-.258.207-.092.558.158.322.638-.038c.57-.035,1.526-.094,1.809-.094h.386c.264,0,1.011.05,1.556.087l.728.046.159-.322-.095-.558-.257-.207h-.1a1.657,1.657,0,0,1-.943-.155c-.162-.113-.334-.317-.392-.972-.062-.622-.062-2.294-.062-2.924v-3.77c0-.787,0-1.3,0-1.691l6.865,10.223.277.335,1.386.1.378-.237-.012-.164c-.105-1.36-.142-1.982-.142-4.956V71.937c0-1.94,0-2.344.06-3.091.059-.725.231-.866.371-.98a1.869,1.869,0,0,1,.9-.143h.1l.265-.212.059-.531-.092-.358-.235.025c-.4.042-1.521.121-1.883.121h-.957c-.24,0-.8-.043-1.253-.078-.258-.02-.488-.037-.625-.045l-.181-.009-.158.321.09.54.221.224h.115a2.027,2.027,0,0,1,.917.136c.162.145.345.31.4.982s.06,1.267.06,3.117v4.158c0,.358,0,.615,0,.811-.76-1.028-2.139-2.9-3.73-5.461l-.4-.644a26.432,26.432,0,0,1-2.193-3.871l-.029-.105-.281-.172-.1.017a6.254,6.254,0,0,1-.79.078h-.712c-.244,0-.84-.044-1.318-.079-.259-.019-.488-.036-.622-.043l-.181-.009-.158.321.092.558.258.207h.1a1.713,1.713,0,0,1,.913.151,1.343,1.343,0,0,1,.4.967c.04.625.04,1.2.04,3.117v4.158C236.583,77.7,236.583,78.234,236.544,78.629Z" transform="translate(-208.367 -60.831)" fill="#323233"/><path d="M261.582,80.912a12.368,12.368,0,0,0,4.3-.715l.193-.06.215-.285-.033-.13a8.046,8.046,0,0,1-.049-.843c0-.841.024-1.471.061-2.159.045-.889.363-1.072.826-1.072h.1l.269-.215.056-.682-.152-.312-.182.009c-.145.008-.379.027-.634.048-.405.033-.91.075-1.142.075H264.8c-.268,0-1.108-.054-1.663-.09l-.723-.043-.156.319.088.639.26.21h.1a2.269,2.269,0,0,1,1.058.134,1.264,1.264,0,0,1,.421.986c.04.523.04,1.449.04,1.844,0,.117-.029.189.009.179a6.982,6.982,0,0,1-2.4.41c-3.041,0-4.857-2.035-4.857-5.444a6.021,6.021,0,0,1,1.811-4.7,4.615,4.615,0,0,1,2.985-.863c1.329,0,2.947.254,3.109,1.465l.015.113.246.184h.9l.306-2.126-.084-.374-.135-.052a12.911,12.911,0,0,0-4.212-.838c-4.254,0-7.113,2.925-7.113,7.278C254.8,77.339,256.893,80.912,261.582,80.912Z" transform="translate(-213.1 -60.807)" fill="#323233"/><path d="M289.961,59.02c-.16.008-.453.027-.8.048-.819.05-2.057.127-2.442.127h-.553c-.386,0-1.626-.077-2.446-.128-.347-.021-.639-.039-.8-.047l-.178-.009-.179.355.121.715.3.243h.1a2.645,2.645,0,0,1,1.358.221,1.811,1.811,0,0,1,.61,1.487c.06.935.087,1.8.087,4.463V72.44c0,5.14,0,7.973-1,9a3.481,3.481,0,0,1-.573.464,3.119,3.119,0,0,1-1.152.129h-.132l-.266.335.082.921.395.148.1.018a6.824,6.824,0,0,0,1.1-.094c2.732-.5,4.006-3.961,4.034-6.974,0-.314,0-.629.008-1.032.008-.721.021-1.723.021-3.506V66.466c0-2.778,0-3.357.087-4.436a1.762,1.762,0,0,1,.591-1.468,2.668,2.668,0,0,1,1.4-.237h.114l.258-.259.116-.7-.177-.355Z" transform="translate(-219.536 -59.011)" fill="#323233"/><path d="M296.424,78.64a1.214,1.214,0,0,1-.4.972,1.767,1.767,0,0,1-.915.15h-.1l-.257.207-.092.558.158.322.634-.037c.571-.036,1.528-.1,1.812-.1h.388c.283,0,1.237.059,1.807.094l.638.038.158-.322-.089-.54-.221-.224h-.115a2.012,2.012,0,0,1-.917-.134,1.161,1.161,0,0,1-.4-.984c-.039-.616-.06-.956-.06-2.933v-3.77c0-1.94,0-2.344.061-3.1.036-.655.22-.82.381-.966a1.956,1.956,0,0,1,.935-.151h.115l.221-.224.089-.54-.158-.321-.694.04c-.588.037-1.477.091-1.751.091h-.388c-.275,0-1.166-.055-1.756-.091l-.689-.04-.158.321.092.558.257.207h.1a1.83,1.83,0,0,1,.9.135,1.3,1.3,0,0,1,.4.992c.06.622.06,1.2.06,3.108v4.158C296.465,77.7,296.446,78.219,296.424,78.64Z" transform="translate(-222.527 -60.836)" fill="#323233"/><path d="M307.919,79.762h-.114c-.4,0-.607-.021-.733-.134-.166-.151-.338-.308-.338-.966,0-.637,0-1.1.142-2.93l.284-3.77c.05-.657.082-1.141.108-1.522l3.767,10.009h1.226l.07-.166c.749-1.768,2.065-5.075,3.121-7.732.347-.87.658-1.654.9-2.265.077.883.2,2.515.441,5.852.1,1.608.1,2.115.1,2.523,0,.645-.167.813-.308.957a1.88,1.88,0,0,1-.906.143h-.113l-.223.223-.094.57.218.292.568-.034c.582-.037,1.555-.1,1.844-.1h.386c.289,0,1.261.06,1.842.1l.647.038.091-.354-.088-.529-.259-.206h-.1a1.991,1.991,0,0,1-.925-.142,1.271,1.271,0,0,1-.476-1c-.1-.628-.141-1-.282-2.925l-.245-3.772c-.142-1.962-.162-2.338-.162-3.093a1.034,1.034,0,0,1,.411-.958,1.872,1.872,0,0,1,.9-.143h.1l.257-.207.092-.558-.158-.321-.608.036c-.579.036-1.549.1-1.837.1h-.734a3.792,3.792,0,0,1-.644-.078l-.122-.021-.283.225-.015.107c-.279,1.931-2.894,8.29-3.712,10.155-.256-.585-.562-1.3-.912-2.282l-1.384-3.789c-.136-.373-.281-.758-.424-1.137A18.28,18.28,0,0,1,308.28,67l-.012-.136-.305-.187-.1.017a6.054,6.054,0,0,1-.77.078h-.712c-.289,0-1.262-.061-1.842-.1l-.6-.036-.16.321.094.558.257.207h.1a1.749,1.749,0,0,1,.919.154c.166.122.4.288.4.947s-.023,1.261-.162,3.116L305.09,76.1c-.127,1.677-.187,2.149-.243,2.525a1.253,1.253,0,0,1-.475.98,1.81,1.81,0,0,1-.924.156h-.083l-.289.192-.1.574.163.32.612-.037c.57-.036,1.523-.1,1.81-.1h.387c.25,0,.865.045,1.358.081.242.018.454.034.581.041l.181.01.158-.322-.089-.541Z" transform="translate(-224.494 -60.836)" fill="#323233"/><path d="M329.143,78.641a1.2,1.2,0,0,1-.4.97,1.766,1.766,0,0,1-.916.151h-.1l-.257.207-.092.558.159.321.644-.038c.568-.036,1.519-.1,1.8-.1H334.1c.448,0,1.394.033,2.094.056.416.014.745.026.838.026h.132l.29-.367.421-2.983h-.957l-.214.215-.018.073c-.321,1.315-.355,1.452-3.541,1.452h-1.731a.563.563,0,0,1-.12-.011h0a.4.4,0,0,1-.015-.132,28.091,28.091,0,0,1-.1-3.333V74l.686,0a7.742,7.742,0,0,1,2.482.193,1.341,1.341,0,0,1,.336.882v.136l.251.186.521.061.313-.163-.011-.176c-.012-.2-.027-.39-.04-.573-.031-.406-.06-.788-.06-1.233,0-.384.026-.686.056-1.034.016-.176.031-.36.045-.567l.011-.179-.316-.161-.523.063-.247.249V71.8a.688.688,0,0,1-.264.539l-.086.094a7.187,7.187,0,0,1-2.44.229c-.234,0-.474,0-.714.009v-.727c0-1.984.02-2.356.06-3.1l.028-.542h1.7c3.082,0,3.082,0,3.147,1.036l.005.1.236.234h.884l.094-2.563-.207-.418h-.17c-.091,0-.487.011-.987.026-.843.024-1.985.056-2.433.056H330.19c-.454,0-1.468-.062-2.074-.1l-.576-.033-.158.321.092.558.257.206h.1a1.859,1.859,0,0,1,.9.134,1.182,1.182,0,0,1,.418.985c.041.625.041,1.2.041,3.116v4.159C329.184,77.7,329.165,78.22,329.143,78.641Z" transform="translate(-230.264 -60.836)" fill="#323233"/><path d="M344.1,78.63c-.073.72-.282.883-.393.972a1.612,1.612,0,0,1-.923.156h-.1l-.258.207-.092.558.158.322.638-.038c.57-.035,1.526-.094,1.809-.094h.386c.264,0,1.013.05,1.56.087l.719.046.163-.32-.095-.56-.257-.207h-.1a1.656,1.656,0,0,1-.942-.155c-.162-.113-.335-.317-.393-.972-.061-.622-.061-2.294-.061-2.924v-3.77c0-.787,0-1.3,0-1.691L352.8,80.469l.277.335,1.387.1.378-.237-.013-.164c-.1-1.36-.141-1.982-.141-4.956V71.937c0-1.94,0-2.344.06-3.091.058-.725.231-.866.37-.98a1.872,1.872,0,0,1,.9-.143h.1l.265-.212.059-.531-.092-.358-.235.025c-.4.042-1.521.121-1.884.121h-.957c-.239,0-.8-.043-1.252-.078-.258-.02-.488-.037-.626-.045l-.18-.009-.158.321.089.54.221.224h.115a2.025,2.025,0,0,1,.917.136c.162.145.345.31.4.982s.06,1.267.06,3.117v4.158c0,.358,0,.615,0,.811-.76-1.028-2.139-2.9-3.729-5.461l-.421-.675a26.461,26.461,0,0,1-2.174-3.841l-.028-.1-.281-.172-.1.017a6.268,6.268,0,0,1-.79.078h-.713c-.243,0-.838-.044-1.317-.079-.259-.019-.488-.036-.622-.043l-.18-.009-.158.321.092.558.258.207h.1a1.722,1.722,0,0,1,.915.151,1.343,1.343,0,0,1,.4.968c.04.625.04,1.2.04,3.116v4.158C344.144,77.7,344.144,78.234,344.1,78.63Z" transform="translate(-233.801 -60.831)" fill="#323233"/><path d="M364,78.641a1.2,1.2,0,0,1-.4.971,1.775,1.775,0,0,1-.916.15h-.1l-.257.207-.092.558.159.321.64-.038c.57-.036,1.522-.1,1.8-.1h4.112c.447,0,1.394.033,2.094.056.417.014.747.026.838.026h.133l.29-.367.421-2.983h-.957l-.215.215-.018.074c-.322,1.315-.356,1.452-3.542,1.452h-1.729a.566.566,0,0,1-.121-.011h0a.456.456,0,0,1-.014-.133,27.636,27.636,0,0,1-.1-3.333V74l.686,0a7.75,7.75,0,0,1,2.483.193,1.341,1.341,0,0,1,.336.882v.136l.25.186.522.061.313-.163-.012-.176c-.011-.2-.027-.39-.04-.573-.031-.406-.06-.788-.06-1.233,0-.384.027-.686.057-1.034.015-.176.031-.36.044-.567l.012-.179-.316-.161-.524.063-.247.249V71.8a.689.689,0,0,1-.263.538l-.086.094a7.2,7.2,0,0,1-2.441.229c-.234,0-.474,0-.715.009v-.727c0-1.969.02-2.346.06-3.1l.028-.542h1.7c3.081,0,3.081,0,3.147,1.036l.006.1.236.234h.885l.093-2.563-.208-.418H371.8c-.091,0-.487.011-.987.026-.844.024-1.986.056-2.434.056h-3.339c-.454,0-1.469-.062-2.076-.1l-.573-.033-.158.321.092.558.257.206h.1a1.842,1.842,0,0,1,.9.135,1.177,1.177,0,0,1,.419.985c.041.625.041,1.2.041,3.116v4.159C364.038,77.7,364.018,78.22,364,78.641Z" transform="translate(-238.505 -60.836)" fill="#323233"/><path d="M377.523,80.818c.923-.083,1.6-.122,2.071-.122h3.257c.735,0,4.4.1,4.748.123l.132.008.327-.366.419-3.034H387.5l-.255.257-.018.072c-.331,1.334-.641,1.413-5.518,1.413h-1.365l-.012-.017c.389-1.2,6.286-9.9,7.722-11.363l.056-.058.14-.708-.336-.466-.175.038a10.329,10.329,0,0,1-1.612.158h-1.344c-2.089,0-4.3-.056-6.582-.164l-.122-.006-.311.313-.357,2.422.283.333h.593l.273-.228.018-.1c.178-.959.476-1.048,3.538-1.048h2.567l.034.04c-.344,1.193-5.88,9.631-7.617,11.335l-.082.08v.691l.367.4Z" transform="translate(-242.002 -60.816)" fill="#323233"/><path d="M211.926,115.3h-.1c-.5,0-.89,0-1.314-.937-.151-.34-.317-.761-.757-2.014l-2.737-7.628h-.372l-1.181.571-.037.1c-.082.224-.267.685-.5,1.264-.274.684-.615,1.532-.932,2.356-1.771,4.57-1.949,5.02-2.11,5.347-.439.941-.808.941-1.317.941h-.1l-.243.2-.045.407.077.378.225-.011c.106-.005.292-.019.5-.034.4-.029.895-.064,1.1-.064h.309c.211,0,.81.039,1.258.068l.649.039.153-.3-.081-.485-.238-.19h-.1c-.688,0-.721-.1-.721-.417a7.29,7.29,0,0,1,.547-1.816c.1-.264.205-.552.318-.866l.214-.606h3.262l.213.607c.112.312.219.6.318.864a7.277,7.277,0,0,1,.547,1.816c0,.317-.033.417-.722.417H207.9l-.205.208-.078.468.153.3.6-.035c.483-.03,1.18-.072,1.4-.072h.538c.2,0,.7.035,1.1.064.211.015.4.029.5.034l.179.009.152-.3-.08-.485Zm-4.722-4.954h-2.33l1.171-3.155Z" transform="translate(-200.187 -69.942)" fill="#323233"/><path d="M224.812,114.086a5.511,5.511,0,0,1-3.037.868c-2.545,0-4.125-1.7-4.125-4.434a4.747,4.747,0,0,1,1.429-3.708,3.669,3.669,0,0,1,2.371-.679c.538,0,2.307.075,2.451,1.032l.182.3h.848l.254-1.79-.109-.329-.118-.046a10.008,10.008,0,0,0-3.409-.577,5.5,5.5,0,0,0-5.748,5.865,5.421,5.421,0,0,0,5.683,5.767,6.947,6.947,0,0,0,3.423-.887l.076-.043.477-.981-.451-.494Z" transform="translate(-203.879 -69.942)" fill="#323233"/><path d="M238.572,114.086a5.512,5.512,0,0,1-3.036.868c-2.545,0-4.127-1.7-4.127-4.434a4.747,4.747,0,0,1,1.43-3.708,3.67,3.67,0,0,1,2.371-.679c.538,0,2.306.075,2.451,1.032l.182.3h.848l.254-1.79-.109-.329-.118-.046a10.008,10.008,0,0,0-3.409-.577,5.5,5.5,0,0,0-5.747,5.865,5.42,5.42,0,0,0,5.682,5.767,6.945,6.945,0,0,0,3.423-.887l.076-.043.476-.981-.449-.494Z" transform="translate(-207.133 -69.942)" fill="#323233"/><path d="M247.552,115.321h-.115a1.66,1.66,0,0,1-.7-.093.879.879,0,0,1-.3-.75c-.03-.5-.047-.768-.047-2.346v-3.018c0-1.553,0-1.876.048-2.477.027-.5.166-.626.284-.733a1.56,1.56,0,0,1,.715-.108h.116l.2-.211.078-.464-.151-.307-.557.033c-.478.03-1.2.076-1.432.076h-.31c-.229,0-.955-.046-1.434-.076l-.556-.033-.151.307.081.483.237.192h.1a1.574,1.574,0,0,1,.68.092.977.977,0,0,1,.3.761c.047.495.047.955.047,2.482v3.33c0,1.252-.015,1.67-.031,2.012a.924.924,0,0,1-.3.74,1.472,1.472,0,0,1-.7.109h-.1l-.238.19-.082.485.153.3.6-.034c.478-.03,1.167-.072,1.389-.072h.31c.222,0,.911.043,1.388.072l.6.035.153-.3-.079-.467Z" transform="translate(-210.368 -69.965)" fill="#323233"/><path d="M255.638,104.857c-.267,0-.706.016-1.152.032s-.909.033-1.195.033h-.929c-.322,0-.864-.041-1.259-.07-.169-.012-.311-.024-.4-.028l-.18-.011-.151.307.081.482.236.192h.1c.492,0,.581.041.712.117.113.091.245.259.288.726.021.354.032,1.191.032,2.492v3.33c0,1.265-.016,1.678-.031,2a1.117,1.117,0,0,1-.288.757,1.44,1.44,0,0,1-.712.1h-.1l-.237.191-.082.485.153.3.6-.035c.478-.029,1.165-.072,1.387-.072h.864c.246,0,.718.008,1.168.018.415.008.811.014,1,.014a5.685,5.685,0,1,0,.1-11.369Zm3.784,5.685c0,2.624-1.479,4.32-3.768,4.32h-1.564c-.468,0-.483-.011-.528-.4-.046-.36-.046-1.059-.046-2.327v-3.018c0-1.431.012-1.81.066-2.86h1.99C257.91,106.254,259.422,107.937,259.422,110.542Z" transform="translate(-212.053 -69.965)" fill="#323233"/><path d="M273.322,113.67l-.018.072c-.253,1.036-.273,1.121-2.781,1.121h-1.434l-.006-.064a22.658,22.658,0,0,1-.079-2.665v-1.317h.5a6.76,6.76,0,0,1,1.936.138,1.033,1.033,0,0,1,.255.669v.132l.231.18.45.05.3-.149-.044-.635c-.024-.325-.048-.628-.048-.988,0-.309.021-.555.045-.826.012-.14.026-.287.036-.452l.012-.18-.3-.149-.452.052-.228.227V109a.5.5,0,0,1-.2.4l-.067.074a6.117,6.117,0,0,1-1.913.167l-.518.006v-.526c0-1.576.016-1.878.049-2.48l.018-.381h1.3c2.416,0,2.416,0,2.465.778l.006.1.218.218h.783l.078-2.117-.188-.378h-.169c-.073,0-.39.009-.79.021-.675.02-1.588.046-1.947.046H268.16c-.366,0-1.187-.05-1.677-.081l-.476-.028-.152.307.081.483.237.192h.1a1.57,1.57,0,0,1,.68.092.9.9,0,0,1,.319.752c.032.5.032.96.032,2.491v3.33c0,1.338-.018,1.732-.032,2.011-.041.5-.182.632-.3.74a1.456,1.456,0,0,1-.7.11h-.1l-.238.19-.082.485.153.3.615-.036c.477-.03,1.154-.072,1.374-.072h3.292c.357,0,1.116.026,1.674.045.334.012.6.021.672.021h.133l.257-.325.347-2.466h-.852Z" transform="translate(-215.715 -69.965)" fill="#323233"/><path d="M288.9,104.821c-.314.034-1.208.1-1.5.1h-.766c-.2,0-.639-.035-1.007-.063-.2-.015-.384-.029-.493-.035l-.18-.011-.151.307.078.466.206.208h.115a1.671,1.671,0,0,1,.7.092c.128.117.261.237.3.752s.048,1,.048,2.491v3.813c-.626-.845-1.678-2.288-2.885-4.233l-.354-.569a20.821,20.821,0,0,1-1.714-3.033L281.26,105,281,104.84l-.1.017a4.886,4.886,0,0,1-.623.062h-.57c-.2,0-.677-.036-1.063-.065-.2-.014-.381-.028-.486-.033l-.18-.011-.151.307.081.483.237.192h.1a1.384,1.384,0,0,1,.7.108,1.029,1.029,0,0,1,.3.736c.032.5.032.962.032,2.491v3.33c0,1.265,0,1.692-.031,2.006-.057.554-.207.672-.292.74a1.258,1.258,0,0,1-.707.114h-.1l-.238.19-.082.485.153.3.607-.035c.477-.03,1.161-.072,1.382-.072h.31c.21,0,.773.038,1.2.067l.654.04.153-.3-.081-.485-.239-.19h-.1a1.313,1.313,0,0,1-.722-.114c-.12-.084-.247-.235-.292-.739s-.048-1.833-.048-2.336V109.11c0-.517,0-.888,0-1.176l5.4,8.041.237.287,1.152.08.344-.216-.012-.164c-.078-1.008-.113-1.468-.113-3.966V109.11c0-1.552,0-1.876.049-2.471.043-.557.166-.658.273-.747a1.548,1.548,0,0,1,.692-.1h.1l.242-.2.05-.453-.085-.343Z" transform="translate(-218.545 -69.96)" fill="#323233"/><path d="M302.533,104.833l-.3-.146-.115.046a22.119,22.119,0,0,1-3.118.158h-2.053a21.993,21.993,0,0,1-3.122-.16l-.116-.047-.3.148-.1.237-.154,2.251h.778l.211-.212.011-.094a.829.829,0,0,1,.317-.656,14.186,14.186,0,0,1,2.633-.138c.017.621.041,1.665.041,2.878v3.33c0,1.3-.016,1.694-.048,2.012a.868.868,0,0,1-.358.746c-.022.018-.166.1-.868.1h-.1l-.237.192-.08.483.15.307.573-.035c.454-.03,1.112-.074,1.337-.074h.929c.226,0,.9.044,1.364.075l.56.035.151-.307-.081-.482-.236-.192h-.1c-.7,0-.847-.084-.876-.107a.862.862,0,0,1-.351-.735c-.034-.525-.048-.82-.048-2.345v-3.019c0-1.281.012-2.226.026-2.861a13.392,13.392,0,0,1,2.633.148.836.836,0,0,1,.3.646l.01.092.21.213h.8l-.15-2.16Z" transform="translate(-222.17 -69.934)" fill="#323233"/><path d="M324.446,115.3h-.1c-.5,0-.89,0-1.314-.937-.15-.337-.322-.774-.757-2.015l-2.738-7.628h-.371l-1.182.571-.037.1c-.082.226-.269.692-.5,1.277-.273.682-.612,1.525-.927,2.343-1.773,4.571-1.95,5.02-2.111,5.347-.439.941-.807.941-1.317.941H313l-.244.2-.044.408.078.378.224-.012c.105-.005.29-.019.5-.034.4-.029.9-.064,1.1-.064h.309c.212,0,.812.039,1.261.068l.647.039.153-.3-.082-.485-.237-.191h-.1c-.689,0-.721-.1-.721-.417a7.277,7.277,0,0,1,.548-1.818c.1-.264.2-.551.316-.864l.214-.606h3.263l.213.607c.112.311.218.6.316.862a7.275,7.275,0,0,1,.548,1.818c0,.317-.033.417-.722.417h-.115l-.2.208-.079.467.154.3.6-.034c.482-.03,1.181-.073,1.4-.073h.538c.2,0,.7.036,1.1.064.21.015.394.029.5.034l.179.009.153-.3-.081-.485Zm-4.722-4.954H317.4l1.171-3.155Z" transform="translate(-226.794 -69.942)" fill="#323233"/><path d="M345.886,104.833l-.3-.146-.115.046a22.121,22.121,0,0,1-3.118.158H340.3a21.994,21.994,0,0,1-3.122-.16l-.115-.047-.3.148-.1.237-.123,1.792-.118-1.7-.128-.328-.3-.146-.116.046a22.111,22.111,0,0,1-3.118.158h-2.052a21.986,21.986,0,0,1-3.122-.16l-.115-.047-.3.148-.1.237-.154,2.251h.778l.211-.212.011-.094a.828.828,0,0,1,.316-.656,14.214,14.214,0,0,1,2.635-.138c.016.621.041,1.665.041,2.878v3.33c0,1.3-.016,1.694-.048,2.012a.871.871,0,0,1-.359.746c-.021.018-.166.1-.867.1h-.1l-.237.192-.08.483.15.307.573-.035c.455-.03,1.112-.074,1.336-.074h.929c.221,0,.912.045,1.368.075l.556.035.151-.307-.08-.482-.236-.193h-.1c-.7,0-.847-.084-.877-.108a.858.858,0,0,1-.35-.734c-.034-.525-.048-.82-.048-2.345v-3.019c0-1.281.012-2.226.026-2.861a13.392,13.392,0,0,1,2.633.148.834.834,0,0,1,.3.646l.011.093.211.212h1.511l.212-.212.011-.094a.829.829,0,0,1,.317-.656,14.205,14.205,0,0,1,2.634-.138c.016.621.04,1.665.04,2.878v3.33c0,1.3-.015,1.7-.047,2.012a.871.871,0,0,1-.359.746c-.021.018-.166.1-.869.1h-.1l-.236.192-.081.482.15.307.57-.036c.454-.03,1.114-.074,1.339-.074h.929c.221,0,.912.045,1.368.075l.557.035.15-.307-.08-.482-.235-.193h-.1c-.7,0-.847-.084-.877-.107a.862.862,0,0,1-.35-.735c-.034-.525-.049-.82-.049-2.345v-3.019c0-1.281.013-2.226.026-2.861a13.409,13.409,0,0,1,2.634.148.835.835,0,0,1,.3.646l.011.092.209.213h.8l-.15-2.16Z" transform="translate(-230.152 -69.934)" fill="#323233"/><path d="M358.349,104.72c-3.3,0-5.6,2.425-5.6,5.9,0,2.854,1.7,5.733,5.487,5.733a5.547,5.547,0,0,0,5.714-5.849A5.448,5.448,0,0,0,358.349,104.72Zm3.8,5.8c0,2.6-1.57,4.419-3.817,4.419-2.289,0-3.767-1.742-3.767-4.437s1.413-4.37,3.686-4.37C360.582,106.133,362.149,107.9,362.149,110.52Z" transform="translate(-236.262 -69.942)" fill="#323233"/><path d="M389.987,104.821c-.314.034-1.208.1-1.5.1h-.766c-.2,0-.64-.035-1.008-.063-.2-.015-.384-.029-.493-.035l-.18-.011-.151.307.078.466.206.208h.115a1.671,1.671,0,0,1,.7.092c.122.111.261.237.3.752s.048,1,.048,2.491v3.814c-.627-.847-1.677-2.288-2.885-4.234l-.354-.569a20.77,20.77,0,0,1-1.715-3.033l-.028-.106-.263-.158-.1.017a4.885,4.885,0,0,1-.623.062h-.57c-.2,0-.677-.036-1.064-.065-.2-.014-.38-.028-.486-.033l-.179-.011-.152.307.081.483.237.192h.1a1.383,1.383,0,0,1,.7.108,1.026,1.026,0,0,1,.3.736c.032.5.032.962.032,2.491v3.33c0,1.265,0,1.692-.031,2.006-.057.554-.207.672-.292.74a1.25,1.25,0,0,1-.707.115h-.1l-.088.07-.035-.023-.124-.046a3.444,3.444,0,0,1-2.674-1.628c-.647-.759-1.311-1.611-1.977-2.536a3.356,3.356,0,0,0,2.564-3.191c0-1.144-.554-3.061-4.264-3.061-.15,0-.4,0-.68.007-.331,0-.693.01-.951.01h-.587c-.3,0-.726-.037-1.07-.066-.166-.014-.312-.027-.413-.032l-.183-.011-.148.307.079.484.239.19h.1c.509,0,.586.045.69.1a1.029,1.029,0,0,1,.293.742c.03.5.048,1.092.048,1.558v4.265c0,1.266-.015,1.678-.031,2a1.119,1.119,0,0,1-.288.757,1.437,1.437,0,0,1-.712.1h-.1l-.237.194-.078.479.145.31.518-.031c.466-.03,1.245-.078,1.476-.078h.309c.231,0,1.011.049,1.477.078l.515.03.15-.307-.077-.465-.206-.209H372.8c-.527,0-.6-.045-.7-.1a.9.9,0,0,1-.3-.746c-.028-.4-.047-1.828-.048-3.088h.771c.663.967,2.023,2.939,2.165,3.082,1.038,1.274,1.592,1.886,2.835,1.886.161,0,.4-.013.664-.028.295-.017.616-.036.868-.036h.007l0,.008.142-.008h.021l.444-.026c.477-.03,1.161-.072,1.381-.072h.31c.209,0,.773.038,1.2.067l.654.04.153-.3-.081-.485-.239-.19h-.1a1.313,1.313,0,0,1-.722-.114c-.119-.084-.247-.235-.292-.739s-.047-1.833-.047-2.336V109.11c0-.517,0-.887,0-1.175l5.4,8.04.237.287,1.151.08.344-.216-.012-.164c-.078-1.008-.113-1.468-.113-3.966V109.11c0-1.553,0-1.876.048-2.471.044-.557.167-.658.274-.747a1.548,1.548,0,0,1,.692-.1h.1l.242-.2.05-.453-.085-.343ZM375.23,108.06c0,1.385-.741,2.058-2.268,2.058H372.1c-.089,0-.294,0-.32,0a1.026,1.026,0,0,1-.026-.333v-1.608c0-.46.015-.9.068-1.926h1.158C374.41,106.249,375.23,106.909,375.23,108.06Z" transform="translate(-240.012 -69.96)" fill="#323233"/><path d="M405.488,113.67l-.018.072c-.253,1.036-.273,1.121-2.781,1.121h-1.434l-.006-.064a22.64,22.64,0,0,1-.079-2.665v-1.317h.5a6.76,6.76,0,0,1,1.936.138,1.031,1.031,0,0,1,.256.669v.132l.229.18.451.05.3-.149-.044-.635c-.024-.325-.048-.628-.048-.988,0-.309.021-.555.045-.826.012-.14.026-.287.036-.452l.012-.18-.3-.149-.453.052-.227.228V109a.5.5,0,0,1-.2.4l-.067.074a6.117,6.117,0,0,1-1.913.167l-.518.006v-.526c0-1.576.016-1.878.049-2.48l.018-.381h1.3c2.416,0,2.416,0,2.465.778l.006.1.218.218h.783l.078-2.117-.188-.378h-.17c-.073,0-.391.009-.791.021-.674.02-1.587.046-1.945.046h-2.672c-.366,0-1.22-.053-1.678-.081l-.475-.028-.152.307.081.483.237.192h.1a1.57,1.57,0,0,1,.68.092.9.9,0,0,1,.319.752c.032.5.032.96.032,2.491v3.33c0,1.338-.018,1.732-.032,2.011-.041.5-.182.632-.3.74a1.457,1.457,0,0,1-.7.11h-.1l-.238.19-.082.485.153.3.615-.036c.477-.03,1.154-.072,1.374-.072h3.292c.357,0,1.115.026,1.674.045.334.012.6.021.672.021h.132l.259-.325.347-2.466h-.852Z" transform="translate(-246.967 -69.965)" fill="#323233"/><path d="M419.353,104.824a9.493,9.493,0,0,1-1.463.1h-.944a7.926,7.926,0,0,1-1.458-.1l-.139-.021-.24.246v.516l.2.2.078.018c.124.029.259.046.392.064.508.065.553.115.553.244a1.558,1.558,0,0,1-.143.473c-.165.415-1.055,2.1-1.766,3.356-.626-1.106-1.163-2.1-1.774-3.23l-.247-.454c-.07-.1-.113-.211-.122-.211a.264.264,0,0,1,.079-.087,2.028,2.028,0,0,1,.817-.149l.109,0,.22-.224v-.517l-.237-.239-.131.014c-.785.086-1.389.13-1.8.13h-.684a9.339,9.339,0,0,1-1.229-.106l-.3-.038-.27.222v.589l.277.142.1.03a1.678,1.678,0,0,1,.856.242,3.252,3.252,0,0,1,.475.568c.847,1.312,1.823,2.916,2.489,4.093a1.957,1.957,0,0,1,.351,1.123v.64c0,1.291-.017,1.688-.049,2.012-.042.527-.184.643-.309.747a1.537,1.537,0,0,1-.689.1h-.1l-.242.2-.05.453.082.333.537-.032c.479-.03,1.281-.08,1.515-.08h.31c.23,0,1.009.049,1.476.078l.514.03.151-.307-.08-.482-.235-.193h-.1a1.533,1.533,0,0,1-.69-.1c-.125-.1-.266-.22-.309-.741-.032-.5-.048-.757-.048-2.312v-.574a1.561,1.561,0,0,1,.192-.686l.3-.531c.48-.856,1.025-1.826,2.068-3.389a2.071,2.071,0,0,1,1.785-1.193l.091-.014.208-.212v-.517l-.24-.242Z" transform="translate(-249.529 -69.962)" fill="#323233"/><path d="M427.615,109.423c-1.88-.6-2.53-.855-2.53-1.855,0-.975.726-1.534,1.991-1.534.571,0,1.906.107,1.977,1.093l.007.1.231.236h.8l.276-1.758-.128-.355-.105-.047a7.85,7.85,0,0,0-3.045-.582c-2.414,0-3.744,1.093-3.744,3.078,0,1.95,1.571,2.727,3.268,3.275l.115.038c1.358.444,2.531.829,2.531,2.131,0,1.161-.832,1.828-2.284,1.828-1.572,0-2.384-.552-2.482-1.687l-.007-.084-.218-.262H423.5l-.323,2.047.118.381.1.053a7.406,7.406,0,0,0,3.466.835c2.63,0,4.2-1.242,4.2-3.323C431.064,110.807,429.406,109.983,427.615,109.423Z" transform="translate(-252.916 -69.942)" fill="#323233"/></g><path d="M184.932,46.239v69.194c0-.193,1.038-.394,1.038-.6V45.636c0,.192-1.038.395-1.038.6" transform="translate(-74.43 -45.537)" fill="#323233"/><g transform="translate(0 0)"><path d="M62.147,87.625l-.1,11.4c0,6.945.723,7.776,7.315,7.984l.412.622-1.03,6.428c0-.1-9.169-.312-13.8-.312-6.285-.105-14.729.518-14.729.518l.928-6.945c5.767-.831,7.312-2.592,7.312-8.5l.1-39.914c0-3.94-.719-5.082-3.295-5.082-1.442,0-3.6.209-3.6.209l-.515-.829.822-6.326s8.962.209,12.979.209c4.223,0,15.758-.52,15.758-.52,15.759,0,24.413,6.323,24.413,17.831,0,8.192-4.944,15.137-13.8,19.8l8.964,14.513c3.809,6.218,7.038,8.516,11.364,8.516a11.967,11.967,0,0,1-2.288,3.962c-2.552,3.084-8.072,3.753-8.072,3.753-4.327-.759-9.775-2.745-13.058-9.284l-8.856-18.04Zm9.579-8.293c2.165-.934,8.757-3.732,8.757-12.959,0-7.57-4.945-11.2-15.349-11.2-1.442,0-1.751.415-1.854,2.282-.513,8.291-.722,14.512-.825,20.838Z" transform="translate(-40.208 -45.76)" fill="#004692"/><path d="M130.8,55.8c0-3.46-.618-4.284-3.6-4.284-1.339,0-6.961.249-6.961.249l-.617-.659.825-4.943,16.444-.016c7.106-.084,20.275-.645,20.275-.645l-.618,5.6c-5.1-.931-10.706,1.233-11.015,4.447-.515,7.5-1.237,26.2-1.237,35.187-.1,10.876-3.746,28.763-37.208,23.95,0,0,5.166-1.053,7.744-3.624a9.652,9.652,0,0,0,2.617-4.092C128.532,105.9,130.8,99.231,130.8,88.932Z" transform="translate(-56.022 -45.506)" fill="#009bdb"/></g><g transform="translate(272.03 18.612)"><path d="M396.794,87.28l-.276-.188-.034-.24a4.658,4.658,0,0,0,.292-.916,3.922,3.922,0,0,0,.1-.676,1.164,1.164,0,0,0-.137-.539,1.384,1.384,0,0,1-.137-.643.5.5,0,0,1,.146-.359,1.193,1.193,0,0,1,.361-.257,2.032,2.032,0,0,1,.463-.154,2.343,2.343,0,0,1,.473-.052.586.586,0,0,1,.361.1.761.761,0,0,1,.215.24.748.748,0,0,1,.094.291,2.35,2.35,0,0,1,.018.274,2.762,2.762,0,0,1-.189.968,5.488,5.488,0,0,1-.464.95,5.9,5.9,0,0,1-.558.771,1.773,1.773,0,0,1-.49.428Z" transform="translate(-396.484 -73.146)" fill="#323233"/><path d="M407.976,81.411h-4.863l-.034-.017.051-.651.086-.068c.137,0,.3-.009.482-.026a.931.931,0,0,0,.429-.129.969.969,0,0,0,.257-.325,1.907,1.907,0,0,0,.173-.668c0-.08,0-.174.008-.283s.012-.242.018-.4.009-.354.009-.583v-5.4q0-.436-.034-.864a1.571,1.571,0,0,0-.163-.66,1.106,1.106,0,0,0-.266-.317.573.573,0,0,0-.318-.154q-.163-.017-.592-.018l-.086-.068-.051-.651.034-.068c.08,0,.186,0,.318.014l.412.028.438.028c.15.01.286.014.412.014h3.025a7.117,7.117,0,0,1,1.95.231,3.587,3.587,0,0,1,1.3.641A2.455,2.455,0,0,1,411.7,72a3.323,3.323,0,0,1,.232,1.255,3.808,3.808,0,0,1-.412,1.879,3.294,3.294,0,0,1-1.057,1.161,4.03,4.03,0,0,1-1.444.59,7.815,7.815,0,0,1-1.555.162H406.5v.72q0,.377.008.727t.018.625q.008.274.025.411a1.449,1.449,0,0,0,.173.694,1.486,1.486,0,0,0,.24.282.568.568,0,0,0,.318.154c.109.011.312.018.61.018l.069.068.051.651Zm-.6-5.633a2.753,2.753,0,0,0,2.062-.651,2.506,2.506,0,0,0,.619-1.8,1.521,1.521,0,0,0-.714-1.378,3.6,3.6,0,0,0-1.949-.454h-.809q-.052.754-.069,1.121t-.017.66v1.866a2.818,2.818,0,0,0,.017.352.294.294,0,0,0,.086.188.364.364,0,0,0,.2.077,2.8,2.8,0,0,0,.352.017Z" transform="translate(-398.044 -69.99)" fill="#323233"/><path d="M413.342,83.364a1.057,1.057,0,0,1,.086-.411,1.227,1.227,0,0,1,.593-.625.972.972,0,0,1,.422-.094,1.209,1.209,0,0,1,1.135,1.13.964.964,0,0,1-.095.42,1.219,1.219,0,0,1-.628.59,1.068,1.068,0,0,1-.412.086,1.114,1.114,0,0,1-1.1-1.1Z" transform="translate(-400.47 -72.901)" fill="#323233"/><path d="M424.808,72.656a1.071,1.071,0,0,0-.326-.642,1.987,1.987,0,0,0-.679-.419,4.134,4.134,0,0,0-.893-.223,7.012,7.012,0,0,0-.971-.068,3.386,3.386,0,0,0-2.372.771,3.29,3.29,0,0,0-.944,1.55,7.2,7.2,0,0,0-.292,2.1,5.529,5.529,0,0,0,.3,1.9A3.962,3.962,0,0,0,419.455,79a3.388,3.388,0,0,0,1.246.839,4.315,4.315,0,0,0,1.582.282,10.473,10.473,0,0,0,1.71-.163,5.88,5.88,0,0,0,1.829-.625l.207.377-.412.753a7.207,7.207,0,0,1-1.8.8,6.711,6.711,0,0,1-1.847.257,6.386,6.386,0,0,1-2.337-.41,5.075,5.075,0,0,1-1.8-1.172,5.339,5.339,0,0,1-1.16-1.812,6.347,6.347,0,0,1-.412-2.334,6.881,6.881,0,0,1,.37-2.266,5.163,5.163,0,0,1,1.1-1.855,5.249,5.249,0,0,1,1.8-1.248,6.276,6.276,0,0,1,2.5-.462h.808a6.591,6.591,0,0,1,.98.078,8.7,8.7,0,0,1,1.039.225,6.633,6.633,0,0,1,1.006.373l.051.157-.223,1.924h-.842Z" transform="translate(-401.162 -69.968)" fill="#323233"/><path d="M429.952,83.364a1.057,1.057,0,0,1,.086-.411,1.212,1.212,0,0,1,.241-.368,1.2,1.2,0,0,1,.352-.257.97.97,0,0,1,.422-.094,1.209,1.209,0,0,1,1.134,1.13.964.964,0,0,1-.095.42,1.191,1.191,0,0,1-.258.351,1.221,1.221,0,0,1-.369.24,1.074,1.074,0,0,1-.412.086,1.114,1.114,0,0,1-1.1-1.1Z" transform="translate(-404.398 -72.901)" fill="#323233"/></g></g></svg>